<svg xmlns="http://www.w3.org/2000/svg" width="98.869" height="124.624" viewBox="0 0 98.869 124.624">
  <g id="logo_en_noir" data-name="logo en noir" transform="translate(-487.131 -1129.165)">
    <rect id="Rectangle_51" data-name="Rectangle 51" width="1.006" height="13.875" transform="translate(513.8 1156.321) rotate(-41.485)" fill="#f2951a"/>
    <rect id="Rectangle_52" data-name="Rectangle 52" width="1.006" height="13.875" transform="translate(515.029 1231.431) rotate(-138.515)" fill="#f2951a"/>
    <rect id="Rectangle_53" data-name="Rectangle 53" width="1.006" height="13.875" transform="translate(549.665 1166.633) rotate(-138.515)" fill="#f2951a"/>
    <rect id="Rectangle_54" data-name="Rectangle 54" width="1.006" height="16.36" transform="translate(547.741 1219.176) rotate(-41.485)" fill="#f2951a"/>
    <path id="Tracé_57" data-name="Tracé 57" d="M192.394,231.025V191.979l7.384,11.834,3.751-11.75,3.581,11.748,7.56-11.838-.538,37.186-13.988-22.412Zm15.192-25.653,5.393,17.689.386-26.739Zm-13.951-9.058v26.739l5.647-17.689Zm10.494,14.471,7.445,11.929-4.868-15.966Zm-3.489-5.59,2.762,4.424,2.83-4.433-2.729-8.955Z" transform="translate(333.049 972.982)" fill="#161615" opacity="0.85"/>
    <g id="Groupe_40" data-name="Groupe 40" transform="translate(518.616 1157.621)">
      <path id="Tracé_18" data-name="Tracé 18" d="M204.815,186.191c-9.827,0-17.794,11.55-17.794,25.8s7.967,25.8,17.794,25.8,17.794-11.55,17.794-25.8S214.642,186.191,204.815,186.191Zm0,48.19c-9.565,0-17.318-10.024-17.318-22.391S195.25,189.6,204.815,189.6s17.318,10.024,17.318,22.391S214.38,234.381,204.815,234.381Z" transform="translate(-186.866 -186.036)" fill="#161615"/>
      <path id="Tracé_19" data-name="Tracé 19" d="M204.845,237.974c-9.9,0-17.949-11.643-17.949-25.954s8.053-25.954,17.949-25.954,17.949,11.643,17.949,25.954S214.741,237.974,204.845,237.974Zm0-51.6c-9.725,0-17.638,11.5-17.638,25.644s7.913,25.644,17.638,25.644,17.639-11.5,17.639-25.644S214.571,186.376,204.845,186.376Zm0,48.19c-9.634,0-17.473-10.114-17.473-22.546s7.839-22.546,17.473-22.546,17.473,10.115,17.473,22.546S214.479,234.566,204.845,234.566Zm0-44.781c-9.464,0-17.163,9.975-17.163,22.235s7.7,22.235,17.163,22.235,17.163-9.975,17.163-22.235S214.309,189.785,204.845,189.785Z" transform="translate(-186.896 -186.066)" fill="#161615"/>
    </g>
    <path id="Tracé_58" data-name="Tracé 58" d="M185.034,241.161H179.9v-6.153h1.365V239.8h3.764Z" transform="translate(330.031 983.384)" fill="#222221"/>
    <path id="Tracé_59" data-name="Tracé 59" d="M189.971,241.22h-5.129v-6.459h5.129v1.365h-3.764v3.728h3.764Z" transform="translate(331.224 983.325)" fill="#222221"/>
    <rect id="Rectangle_55" data-name="Rectangle 55" width="4.447" height="1.365" transform="translate(516.748 1220.633)" fill="#222221"/>
    <path id="Tracé_60" data-name="Tracé 60" d="M200.5,241.22h-5.129v-6.459H200.5v1.365h-3.764v3.728H200.5Z" transform="translate(333.768 983.325)" fill="#222221"/>
    <rect id="Rectangle_56" data-name="Rectangle 56" width="4.447" height="1.365" transform="translate(529.819 1220.633)" fill="#222221"/>
    <path id="Tracé_61" data-name="Tracé 61" d="M223.246,241.315h-5.129v-6.459h5.129v1.365h-3.764v3.728h3.764Z" transform="translate(339.267 983.348)" fill="#222221"/>
    <rect id="Rectangle_57" data-name="Rectangle 57" width="4.447" height="1.365" transform="translate(558.067 1220.751)" fill="#222221"/>
    <rect id="Rectangle_58" data-name="Rectangle 58" width="1.365" height="5.848" transform="translate(522.365 1218.392)" fill="#222221"/>
    <rect id="Rectangle_59" data-name="Rectangle 59" width="1.365" height="5.848" transform="translate(526.475 1218.392)" fill="#222221"/>
    <rect id="Rectangle_60" data-name="Rectangle 60" width="1.365" height="5.848" transform="translate(542.747 1218.51)" fill="#222221"/>
    <rect id="Rectangle_61" data-name="Rectangle 61" width="4.11" height="1.365" transform="translate(523.048 1220.633)" fill="#222221"/>
    <rect id="Rectangle_62" data-name="Rectangle 62" width="1.365" height="5.848" transform="translate(536.153 1218.392)" fill="#222221"/>
    <path id="Tracé_62" data-name="Tracé 62" d="M201.845,238.676l-.073-1.365c2.665-.142,3.473-.638,3.546-.8a11.249,11.249,0,0,0-3.728-.381l-.037-1.366c2.185-.063,4.845.15,5.1,1.5a1.345,1.345,0,0,1-.274,1.108C206.167,237.645,205.512,238.479,201.845,238.676Z" transform="translate(335.263 983.323)" fill="#222221"/>
    <rect id="Rectangle_63" data-name="Rectangle 63" width="1.366" height="3.76" transform="matrix(0.842, -0.54, 0.54, 0.842, 538.656, 1221.443)" fill="#222221"/>
    <path id="Tracé_63" data-name="Tracé 63" d="M210.658,241.332a3.313,3.313,0,0,1-2.2-.7l.915-1.014a2.744,2.744,0,0,0,2.78-.046c.133-.111.168-.168.041-.371-.22-.358-.887-.466-1.532-.57a2.873,2.873,0,0,1-2.229-1.069,1.554,1.554,0,0,1,.1-1.781c.6-.786,2.126-1.386,4.6-.713l-.358,1.317c-1.813-.49-2.882-.135-3.156.225a.2.2,0,0,0-.01.261c.133.227.736.325,1.269.411a3.269,3.269,0,0,1,2.477,1.2,1.565,1.565,0,0,1-.329,2.137A3.865,3.865,0,0,1,210.658,241.332Z" transform="translate(336.871 983.328)" fill="#222221"/>
    <path id="Tracé_64" data-name="Tracé 64" d="M215.5,241.332a3.313,3.313,0,0,1-2.2-.7l.915-1.014a2.744,2.744,0,0,0,2.78-.046c.133-.111.168-.168.042-.371-.221-.358-.888-.466-1.534-.57a2.873,2.873,0,0,1-2.229-1.069,1.554,1.554,0,0,1,.1-1.781c.6-.786,2.125-1.386,4.6-.713l-.358,1.317c-1.813-.49-2.881-.135-3.156.225a.2.2,0,0,0-.01.261c.133.227.736.325,1.269.411a3.269,3.269,0,0,1,2.477,1.2,1.564,1.564,0,0,1-.329,2.137A3.865,3.865,0,0,1,215.5,241.332Z" transform="translate(338.042 983.328)" fill="#222221"/>
    <rect id="Rectangle_64" data-name="Rectangle 64" width="3.092" height="1.242" transform="translate(558.627 1217.262) rotate(-25.264)" fill="#222221"/>
    <rect id="Rectangle_65" data-name="Rectangle 65" width="3.092" height="1.366" transform="matrix(0.904, -0.427, 0.427, 0.904, 530.353, 1217.205)" fill="#222221"/>
    <ellipse id="Ellipse_126" data-name="Ellipse 126" cx="0.739" cy="0.518" rx="0.739" ry="0.518" transform="translate(542.691 1216.646)" fill="#222221"/>
    <path id="Tracé_65" data-name="Tracé 65" d="M202.037,163.15l-.26,25.71h.519Z" transform="translate(335.318 966.016)" fill="#f2951a"/>
    <path id="Tracé_66" data-name="Tracé 66" d="M201.4,268.519l-.26-25.71h.519Z" transform="translate(335.164 985.27)" fill="#f2951a"/>
    <path id="Tracé_67" data-name="Tracé 67" d="M161.539,207.019l25.71.26v-.519Z" transform="translate(325.592 976.556)" fill="#f2951a"/>
    <path id="Tracé_68" data-name="Tracé 68" d="M246.167,206.81l-25.71.26v-.519Z" transform="translate(339.833 976.506)" fill="#f2951a"/>
  </g>
</svg>
